<svg xmlns="http://www.w3.org/2000/svg" version="1.1" xmlns:xlink="http://www.w3.org/1999/xlink" xmlns:svgjs="http://svgjs.com/svgjs" width="1440" height="560" preserveAspectRatio="none" viewBox="0 0 1440 560"><g mask="url(&quot;#SvgjsMask5329&quot;)" fill="none"><rect width="1440" height="560" x="0" y="0" fill="url(#SvgjsLinearGradient5330)"></rect><path d="M1019 339L1018 -46" stroke-width="10" stroke="url(#SvgjsLinearGradient5331)" stroke-linecap="round" class="Up"></path><path d="M1059 2L1058 -233" stroke-width="8" stroke="url(#SvgjsLinearGradient5332)" stroke-linecap="round" class="Down"></path><path d="M397 514L396 326" stroke-width="6" stroke="url(#SvgjsLinearGradient5331)" stroke-linecap="round" class="Up"></path><path d="M329 76L328 462" stroke-width="10" stroke="url(#SvgjsLinearGradient5332)" stroke-linecap="round" class="Down"></path><path d="M666 38L665 -148" stroke-width="6" stroke="url(#SvgjsLinearGradient5331)" stroke-linecap="round" class="Up"></path><path d="M1227 361L1226 617" stroke-width="8" stroke="url(#SvgjsLinearGradient5332)" stroke-linecap="round" class="Down"></path><path d="M358 394L357 214" stroke-width="8" stroke="url(#SvgjsLinearGradient5332)" stroke-linecap="round" class="Down"></path><path d="M1168 55L1167 -102" stroke-width="10" stroke="url(#SvgjsLinearGradient5331)" stroke-linecap="round" class="Up"></path><path d="M312 332L311 -80" stroke-width="6" stroke="url(#SvgjsLinearGradient5332)" stroke-linecap="round" class="Down"></path><path d="M1250 324L1249 171" stroke-width="6" stroke="url(#SvgjsLinearGradient5332)" stroke-linecap="round" class="Down"></path><path d="M1362 436L1361 752" stroke-width="6" stroke="url(#SvgjsLinearGradient5331)" stroke-linecap="round" class="Up"></path><path d="M519 188L518 10" stroke-width="10" stroke="url(#SvgjsLinearGradient5332)" stroke-linecap="round" class="Down"></path><path d="M777 459L776 114" stroke-width="8" stroke="url(#SvgjsLinearGradient5331)" stroke-linecap="round" class="Up"></path><path d="M711 178L710 -160" stroke-width="6" stroke="url(#SvgjsLinearGradient5332)" stroke-linecap="round" class="Down"></path><path d="M1238 455L1237 769" stroke-width="10" stroke="url(#SvgjsLinearGradient5332)" stroke-linecap="round" class="Down"></path><path d="M1163 26L1162 370" stroke-width="8" stroke="url(#SvgjsLinearGradient5332)" stroke-linecap="round" class="Down"></path><path d="M690 24L689 -138" stroke-width="6" stroke="url(#SvgjsLinearGradient5332)" stroke-linecap="round" class="Down"></path><path d="M1125 90L1124 -172" stroke-width="8" stroke="url(#SvgjsLinearGradient5331)" stroke-linecap="round" class="Up"></path><path d="M1169 361L1168 514" stroke-width="6" stroke="url(#SvgjsLinearGradient5331)" stroke-linecap="round" class="Up"></path><path d="M766 82L765 325" stroke-width="10" stroke="url(#SvgjsLinearGradient5332)" stroke-linecap="round" class="Down"></path><path d="M460 266L459 608" stroke-width="10" stroke="url(#SvgjsLinearGradient5332)" stroke-linecap="round" class="Down"></path><path d="M25 167L24 -136" stroke-width="8" stroke="url(#SvgjsLinearGradient5331)" stroke-linecap="round" class="Up"></path><path d="M905 214L904 -21" stroke-width="8" stroke="url(#SvgjsLinearGradient5332)" stroke-linecap="round" class="Down"></path><path d="M642 81L641 273" stroke-width="6" stroke="url(#SvgjsLinearGradient5332)" stroke-linecap="round" class="Down"></path><path d="M1018 261L1017 667" stroke-width="10" stroke="url(#SvgjsLinearGradient5331)" stroke-linecap="round" class="Up"></path><path d="M172 226L171 553" stroke-width="10" stroke="url(#SvgjsLinearGradient5332)" stroke-linecap="round" class="Down"></path><path d="M1422 156L1421 -24" stroke-width="10" stroke="url(#SvgjsLinearGradient5331)" stroke-linecap="round" class="Up"></path><path d="M682 211L681 40" stroke-width="8" stroke="url(#SvgjsLinearGradient5332)" stroke-linecap="round" class="Down"></path><path d="M567 449L566 187" stroke-width="8" stroke="url(#SvgjsLinearGradient5332)" stroke-linecap="round" class="Down"></path><path d="M1422 28L1421 -353" stroke-width="8" stroke="url(#SvgjsLinearGradient5332)" stroke-linecap="round" class="Down"></path><path d="M1278 57L1277 -262" stroke-width="6" stroke="url(#SvgjsLinearGradient5331)" stroke-linecap="round" class="Up"></path><path d="M580 299L579 -75" stroke-width="8" stroke="url(#SvgjsLinearGradient5331)" stroke-linecap="round" class="Up"></path><path d="M1077 457L1076 851" stroke-width="8" stroke="url(#SvgjsLinearGradient5332)" stroke-linecap="round" class="Down"></path><path d="M552 215L551 522" stroke-width="10" stroke="url(#SvgjsLinearGradient5332)" stroke-linecap="round" class="Down"></path><path d="M1029 371L1028 735" stroke-width="6" stroke="url(#SvgjsLinearGradient5331)" stroke-linecap="round" class="Up"></path><path d="M709 50L708 -239" stroke-width="6" stroke="url(#SvgjsLinearGradient5331)" stroke-linecap="round" class="Up"></path></g><defs><mask id="SvgjsMask5329"><rect width="1440" height="560" fill="#ffffff"></rect></mask><linearGradient x1="15.28%" y1="-39.29%" x2="84.72%" y2="139.29%" gradientUnits="userSpaceOnUse" id="SvgjsLinearGradient5330"><stop stop-color="rgba(1, 28, 56, 1)" offset="0"></stop><stop stop-color="rgba(7, 66, 127, 1)" offset="0.29"></stop><stop stop-color="rgba(56, 39, 185, 1)" offset="0.75"></stop><stop stop-color="rgba(33, 13, 106, 1)" offset="1"></stop></linearGradient><linearGradient x1="0%" y1="100%" x2="0%" y2="0%" id="SvgjsLinearGradient5331"><stop stop-color="rgba(78, 152, 232, 0)" offset="0"></stop><stop stop-color="rgba(78, 152, 232, 1)" offset="1"></stop></linearGradient><linearGradient x1="0%" y1="0%" x2="0%" y2="100%" id="SvgjsLinearGradient5332"><stop stop-color="rgba(78, 152, 232, 0)" offset="0"></stop><stop stop-color="rgba(78, 152, 232, 1)" offset="1"></stop></linearGradient></defs></svg>