<svg xmlns="http://www.w3.org/2000/svg" version="1.1" xmlnsXlink="http://www.w3.org/1999/xlink" xmlnsSvgjs="http://svgjs.com/svgjs" width="1440" height="560" preserveAspectRatio="none" viewBox="0 0 1440 560">
    <g mask="url(&quot;#SvgjsMask1205&quot;)" fill="none">
        <rect width="1440" height="560" x="0" y="0" fill="#0e2a47"></rect>
        <path d="M 0,36 C 19.2,84.2 57.6,281.2 96,277 C 134.4,272.8 153.6,40.2 192,15 C 230.4,-10.2 249.6,148.2 288,151 C 326.4,153.8 345.6,21.4 384,29 C 422.4,36.6 441.6,184.4 480,189 C 518.4,193.6 537.6,47.8 576,52 C 614.4,56.2 633.6,196.8 672,210 C 710.4,223.2 729.6,127.6 768,118 C 806.4,108.4 825.6,166.2 864,162 C 902.4,157.8 921.6,77.8 960,97 C 998.4,116.2 1017.6,266.4 1056,258 C 1094.4,249.6 1113.6,59.2 1152,55 C 1190.4,50.8 1209.6,235.2 1248,237 C 1286.4,238.8 1305.6,62.4 1344,64 C 1382.4,65.6 1420.8,208.8 1440,245L1440 560L0 560z" fill="rgba(9, 56, 107, 1)"></path>
        <path d="M 0,434 C 28.8,403.4 86.4,270.6 144,281 C 201.6,291.4 230.4,465 288,486 C 345.6,507 374.4,386.2 432,386 C 489.6,385.8 518.4,497 576,485 C 633.6,473 662.4,325.4 720,326 C 777.6,326.6 806.4,484 864,488 C 921.6,492 950.4,350.8 1008,346 C 1065.6,341.2 1094.4,456.4 1152,464 C 1209.6,471.6 1238.4,391.8 1296,384 C 1353.6,376.2 1411.2,416.8 1440,425L1440 560L0 560z" fill="rgba(38, 102, 169, 1)"></path>
    </g>
    <defs>
        <mask id="SvgjsMask1205">
            <rect width="1440" height="560" fill="#ffffff"></rect>
        </mask>
    </defs>
</svg>